# xmcd
#
# Track frame offsets:
#	150
#	15532
#	29033
#	40291
#	54114
#	63101
#	80419
#	96316
#	111420
#	122817
#	134298
#	145362
#	154963
#	168366
#	180739
#
# Disc length: 2556 seconds
#
# Revision: 1
# Processed by: cddbd v1.5.2PL0 Copyright (c) Steve Scherf et al.
# Submitted via: audiograbber 1.83.01
#
DISCID=ce09fa0f
DTITLE=Jean Shepard - Sing 15 Gospel Hits (w. Tommy Overstreet)
DYEAR=2005
DGENRE=Gospel
TTITLE0=In The Garden
TTITLE1=Old Country Chruch
TTITLE2=Holy, Holy, Holy
TTITLE3=Old Rugged Cross
TTITLE4=Rock Of Ages
TTITLE5=Precious Memories
TTITLE6=Blessed Assurance
TTITLE7=What A Friend We Have In Jesus
TTITLE8=Battle Hymn Of The Republic
TTITLE9=When God Dips His Pen Of Love Into My Heart
TTITLE10=Have Thine Own Way
TTITLE11=Crying Holy
TTITLE12=When They Ring Those Golden Bells
TTITLE13=Amazing Grace
TTITLE14=Leaning On The Everlasting Arms
EXTD=
EXTT0=
EXTT1=
EXTT2=
EXTT3=
EXTT4=
EXTT5=
EXTT6=
EXTT7=
EXTT8=
EXTT9=
EXTT10=
EXTT11=
EXTT12=
EXTT13=
EXTT14=
PLAYORDER=
